<svg width="64" height="64" viewBox="0 0 64 64" fill="none" xmlns="http://www.w3.org/2000/svg">
<g clip-path="url(#clip0_11_51)">
<path d="M58.6667 8H18.6667C16.8267 8 15.3867 8.93333 14.4267 10.3467L0 32L14.4267 53.6267C15.3867 55.04 16.8267 56 18.6667 56H58.6667C61.6 56 64 53.6 64 50.6667V13.3333C64 10.4 61.6 8 58.6667 8ZM58.6667 50.6667H18.8533L6.4 32L18.8267 13.3333H58.6667V50.6667ZM27.76 45.3333L37.3333 35.76L46.9067 45.3333L50.6667 41.5733L41.0933 32L50.6667 22.4267L46.9067 18.6667L37.3333 28.24L27.76 18.6667L24 22.4267L33.5733 32L24 41.5733L27.76 45.3333Z" fill="#858578"/>
</g>
<defs>
<clipPath id="clip0_11_51">
<rect width="64" height="64" fill="white"/>
</clipPath>
</defs>
</svg>
